<svg xmlns="http://www.w3.org/2000/svg" viewBox="0 0 1080 1080" xml:space="preserve">
<g transform="matrix(1 0 0 1 540 540)" id="c8624573-117c-4024-b5f1-42e676f150d9"  >
<rect style="stroke: none; stroke-width: 1; stroke-dasharray: none; stroke-linecap: butt; stroke-dashoffset: 0; stroke-linejoin: miter; stroke-miterlimit: 4; fill: rgb(31,41,55); fill-rule: nonzero; opacity: 1;" vector-effect="non-scaling-stroke"  x="-540" y="-540" rx="0" ry="0" width="1080" height="1080" />
</g>
<g transform="matrix(13.46 0 0 13.46 540 540)" id="76886cee-501e-4f3c-a807-52d919f6d82f"  >
<path style="stroke: rgb(0,0,0); stroke-width: 0; stroke-dasharray: none; stroke-linecap: butt; stroke-dashoffset: 0; stroke-linejoin: miter; stroke-miterlimit: 4; fill: rgb(255,255,255); fill-rule: nonzero; opacity: 1;" vector-effect="non-scaling-stroke"  transform=" translate(-35.57, -35.57)" d="M 64.448 14.781 C 68.701 20.645 71.154 27.810000000000002 71.13 35.567 C 71.07 55.208 55.205999999999996 71.134 35.565 71.134 C 29.316999999999997 71.134 23.445999999999998 69.521 18.342 66.69 C 37.840999999999994 75.28699999999999 62.567 65.444 60.721 46.775999999999996 C 58.715999999999994 26.576999999999995 36.041 26.650999999999996 34.65299999999999 15.777999999999995 C 33.669999999999995 8.106999999999996 53.53599999999999 -0.5700000000000038 64.448 14.781999999999995 L 64.448 14.781999999999995 M 35.565 0.002 C 41.815 0.002 47.684999999999995 1.615 52.789 4.446 C 33.289 -4.15 8.563000000000002 5.691 10.408999999999999 24.36 C 12.413999999999998 44.559 35.087999999999994 44.485 36.476 55.357 C 37.375 62.400999999999996 19.298 71.517 8.309999999999999 58.413 C 2.9315244937100626 52.01649735579065 -0.011959569724510288 43.92421854553477 3.552713678800501e-15 35.567000000000014 C 0 15.927 15.924 0.002 35.565 0.002 L 35.565 0.002" stroke-linecap="round" />
</g>
</svg>