<svg xmlns="http://www.w3.org/2000/svg" viewBox="0 0 71.133 71.133" fill="#1f2937"><path d="M64.448 14.781c4.253 5.864 6.706 13.029 6.682 20.786-.06 19.641-15.924 35.567-35.565 35.567-6.248 0-12.119-1.613-17.223-4.444 19.499 8.597 44.225-1.246 42.379-19.914-2.005-20.199-24.68-20.125-26.068-30.998-.983-7.671 18.883-16.348 29.795-.996h0M35.565.002c6.25 0 12.12 1.613 17.224 4.444-19.5-8.596-44.226 1.245-42.38 19.914 2.005 20.199 24.679 20.125 26.067 30.997.899 7.044-17.178 16.16-28.166 3.056A35.42 35.42 0 0 1 0 35.567C0 15.927 15.924.002 35.565.002h0"/></svg>