<svg xmlns="http://www.w3.org/2000/svg" viewBox="0 0 350 350">
<rect width="100%" height="100%" fill="#ffffff" />
<path d="M175,0C78.504,0,0,78.504,0,175s78.504,175,175,175s175-78.504,175-175S271.496,0,175,0z M175,272.669
			c-11.045,0-20-8.954-20-20c0-11.046,8.955-20,20-20s20,8.954,20,20C195,263.715,186.045,272.669,175,272.669z M175.508,174.729
			c-41.748,0-75.712,33.964-75.712,75.713c0,36.735,26.308,67.421,61.068,74.265C84.552,317.557,24.624,253.149,24.624,175
			c0-82.918,67.46-150.377,150.376-150.377c5.05,0,6.855,0.164,6.855,0.164c38.255,3.463,68.231,35.614,68.231,74.771
			C250.086,174.375,175.508,174.729,175.508,174.729z"/>
<circle cx="175" cy="98.333" r="20"/>
</svg>

			
